<svg xmlns="http://www.w3.org/2000/svg" viewBox="0 0 96.28 118.91"><defs><style>.cls-1{fill:#4b4b4b;}</style></defs><title>Asset 2</title><g id="Layer_2" data-name="Layer 2"><g id="Layer_1-2" data-name="Layer 1"><path class="cls-1" d="M0,89.78c3.2-.78,6.28-1.42,9.36-2,.52-.1.72,0,.82.56.37,2.25.83,4.48,1.24,6.72a3.42,3.42,0,0,0,.67,1.55c1.1,1.45,2.17,2.94,3.25,4.42.15.21.28.44.47.73-4.16.73-8.19,1.56-12.37,2.54l1.67-3.8c.6-1.31,1.16-2.64,1.83-3.91.35-.65.2-1-.33-1.39C4.66,93.61,2.74,92,.81,90.45Z"/><path class="cls-1" d="M46.88,50.72a14,14,0,0,1,2.59.26c.44.08.66.19.32.68-.93,1.33-1.82,2.68-2.69,4-.31.47-.46.4-.73,0q-1.32-2-2.69-4c-.27-.39-.23-.56.25-.65A14.59,14.59,0,0,1,46.88,50.72Z"/><path class="cls-1" d="M42.68,74.76a4.2,4.2,0,0,1-.83-.49C42.14,74.44,42.43,74.58,42.68,74.76Z"/><path class="cls-1" d="M90,97.8c-1-2.06-1-2.06.8-3.53s3.61-2.94,5.51-4.49c-3.15-.79-6.22-1.4-9.29-2-.46-.09-.49.21-.55.5a31.64,31.64,0,0,0-.57,3.18,12.41,12.41,0,0,1-3.6,8,25.46,25.46,0,0,0-1.81,2.31c4.21.73,8.21,1.57,12.19,2.49a1,1,0,0,0-.18-.83C91.65,101.51,90.83,99.65,90,97.8Z"/><path class="cls-1" d="M57.08,72.19c3.83-4.58,3.47-11.31,1.15-14.57-1.34,2.47-2.61,5-4,7.34-.65,1.08-.81,1.93.07,2.93.41.47.66.94,1.43,1a1.3,1.3,0,0,1,1,1.84A1.14,1.14,0,0,0,57.08,72.19Z"/><path class="cls-1" d="M38,68.84a1.11,1.11,0,0,0,1-.64,10.36,10.36,0,0,1,.73-1.13,1,1,0,0,0,0-1.2c-1.14-2-2.22-4.05-3.33-6.07l-1.22-2.21c-2.7,3.91-2.08,11.08,1.22,14.57a1.14,1.14,0,0,0,.34-1.4A1.36,1.36,0,0,1,38,68.84Z"/><path class="cls-1" d="M15.85,92.9a1,1,0,0,1-.7-.14.9.9,0,0,1-.49.34,1.21,1.21,0,0,1-.42,0,1,1,0,0,1-.3-.11.66.66,0,0,1-.34-.46.63.63,0,0,1,0-.28.44.44,0,0,0,.34.07c.34,0,.53-.29.59-.7-.26-1.52-.39-2.28-.66-3.8a1.11,1.11,0,0,0-.2-.51,2,2,0,0,0-.69-.46,1.84,1.84,0,0,0,.43-.51,1.26,1.26,0,0,0,.07-.72l-.58-3.28a.74.74,0,0,0-.81-.47.4.4,0,0,0-.3.19.57.57,0,0,1-.12-.26.7.7,0,0,1,0-.29.82.82,0,0,1,.14-.26.91.91,0,0,1,.58-.32,1,1,0,0,1,.68.14,1,1,0,0,1,.6-.36,1.11,1.11,0,0,1,.67.09,3.42,3.42,0,0,1,1.25-.48,6.11,6.11,0,0,1,1.08-.08,3.15,3.15,0,0,1,1.82.64,3.45,3.45,0,0,1,.81.81,8.08,8.08,0,0,1,1.23,2.9,1.47,1.47,0,0,0,.24.63,1.19,1.19,0,0,0,.57.39A1,1,0,0,0,21,86a1.74,1.74,0,0,0-.1.78A7.39,7.39,0,0,1,20.2,91a3.28,3.28,0,0,1-2.48,1.74,2.65,2.65,0,0,1-1.23-.1A1.05,1.05,0,0,1,15.85,92.9ZM15,90.78c.17-.13.21-.49.13-1.07s-.2-1.39-.38-2.41l-.36-2c-.06-.34-.11-.61-.15-.82a3.11,3.11,0,0,0-.32-1.08.69.69,0,0,0-.26-.22,29.94,29.94,0,0,1,.47,3.09.61.61,0,0,1-.31.5.66.66,0,0,1,.46.34,26.51,26.51,0,0,1,.54,2.71C14.86,90.17,14.9,90.37,15,90.78Zm1.69.59a.83.83,0,0,0,.79.3,1.21,1.21,0,0,0,.74-.36,1.76,1.76,0,0,0,.44-.84,8.65,8.65,0,0,0-.06-3.36,1.45,1.45,0,0,0-.22-.65,1.26,1.26,0,0,0-.59-.35,1.1,1.1,0,0,0,.41-.4,1.27,1.27,0,0,0,.06-.74,6.44,6.44,0,0,0-.18-.85,8.09,8.09,0,0,0-.28-.83,7.91,7.91,0,0,0-.39-.77,3.52,3.52,0,0,0-.49-.63,1.44,1.44,0,0,0-1.23-.48l-.39.08a.31.31,0,0,0-.25.19C15.67,85.57,16,87.51,16.66,91.37Zm1.49-8.93A11.26,11.26,0,0,1,19,85.17a1.48,1.48,0,0,1,0,.48l-.09.14a.91.91,0,0,1-.21.18c.26.1.4.23.43.35a1,1,0,0,1,0,.17l0,.2a13.15,13.15,0,0,1,.16,2c0,.67,0,1.13,0,1.37a.74.74,0,0,0,.31-.52c0-.25.06-.52.08-.8s0-.59,0-.9c0-.65-.09-1.32-.19-2a9.38,9.38,0,0,0-.88-3C18.52,82.62,18.34,82.46,18.15,82.44Z"/><path class="cls-1" d="M22.94,91.66a.64.64,0,0,1-.45.27A.51.51,0,0,1,22,91.8a.63.63,0,0,1-.23-.41,1.11,1.11,0,0,1,0-.37.69.69,0,0,0,.43.07.6.6,0,0,0,.35-.13,1.18,1.18,0,0,0,.2-.27c.14-1.35.22-2,.37-3.37,0-.22,0-.33,0-.55a2.18,2.18,0,0,0,0-.45.88.88,0,0,0-.62-.85,1.61,1.61,0,0,0,.58-.59,3.53,3.53,0,0,0,.32-1.19c.11-1.19.16-1.78.28-3a.54.54,0,0,0-.49-.28.87.87,0,0,0-.47.2.63.63,0,0,1-.1-.31,1,1,0,0,1,0-.34,1,1,0,0,1,.12-.3.84.84,0,0,1,.62-.32.92.92,0,0,1,.76.25.94.94,0,0,1,.71-.42.87.87,0,0,1,.74.24,1.27,1.27,0,0,1,.75-.4.92.92,0,0,1,.64.14.69.69,0,0,1,.27.52.44.44,0,0,1,0,.28.46.46,0,0,0-.34-.1c-.26,0-.41.28-.44.77.45,1.27.67,1.9,1.1,3.16a1.52,1.52,0,0,0,.81.88l.33.14a.84.84,0,0,0-.5.83,1.13,1.13,0,0,0,.09.34l1.51,3.88a.7.7,0,0,0,.54.31.56.56,0,0,0,.38-.17.36.36,0,0,1,.08.23,1.07,1.07,0,0,1,0,.31.74.74,0,0,1-.1.26.69.69,0,0,1-.51.28.84.84,0,0,1-.63-.21,1,1,0,0,1-.64.32.89.89,0,0,1-.66-.19.83.83,0,0,1-.57.32.88.88,0,0,1-.59-.14.74.74,0,0,1-.31-.53.5.5,0,0,1,0-.28.5.5,0,0,0,.33.1.55.55,0,0,0,.45-.23L27,88.32c-1.24.13-1.86.19-3.1.34l-.15,1.75q.3.47.63.42a.76.76,0,0,0,.48-.19,1.08,1.08,0,0,1,.11.38.58.58,0,0,1-.12.44.6.6,0,0,1-.43.24.8.8,0,0,1-.53-.13.73.73,0,0,1-.44.25A.58.58,0,0,1,22.94,91.66Zm3.67-4.37c-.82-2.34-1.23-3.53-2.07-5.9-.26,2.49-.37,3.73-.58,6.19Zm1.31,1.8c.07,0,.09-.12.07-.32a4.71,4.71,0,0,0-.24-1c-.13-.35-.19-.53-.32-.89a8.58,8.58,0,0,1-.37-1.27.55.55,0,0,1,.22-.61c-.28,0-.46-.14-.53-.29a1.16,1.16,0,0,0-.09-.14l-.06-.13s-.05-.11-.09-.18-.07-.19-.13-.33l-.53-1.44a1.91,1.91,0,0,0-.48-.79.29.29,0,0,0-.16-.09c.42,1.24.68,2,.81,2.39.83,2.28,1.32,3.61,1.48,4Z"/><path class="cls-1" d="M33.67,90.56a1,1,0,0,1-.63.29,1,1,0,0,1-.67-.19.82.82,0,0,1-.51.28,1.07,1.07,0,0,1-.41,0,1,1,0,0,1-.29-.13.65.65,0,0,1-.29-.48.48.48,0,0,1,0-.27.41.41,0,0,0,.32.1c.34,0,.55-.24.64-.64-.13-1.5-.2-2.27-.34-3.8a1,1,0,0,0-.15-.52,2,2,0,0,0-.65-.53,1.7,1.7,0,0,0,.47-.47,1.33,1.33,0,0,0,.14-.71c-.12-1.34-.17-2-.28-3.35a.75.75,0,0,0-.79-.55.43.43,0,0,0-.32.16.62.62,0,0,1-.09-.27.63.63,0,0,1,0-.3.81.81,0,0,1,.17-.24,1,1,0,0,1,.62-.28,1,1,0,0,1,.68.21,1,1,0,0,1,1.39-.1,3.1,3.1,0,0,1,1.48-.45,4,4,0,0,1,1.4.11,2.76,2.76,0,0,1,1,.52,3.36,3.36,0,0,1,1.09,2,1.18,1.18,0,0,0,.6.87A1.72,1.72,0,0,0,37.77,83a2.29,2.29,0,0,1-1.32,2,1.75,1.75,0,0,1,1,.82,3.3,3.3,0,0,1,.47,1.58c0,.31,0,.47,0,.77,0,.75.24,1.21.6,1.41a.6.6,0,0,0,.35.08.39.39,0,0,0,.3-.14.53.53,0,0,1,.07.26.66.66,0,0,1,0,.28.68.68,0,0,1-.14.23.64.64,0,0,1-.45.23.88.88,0,0,1-.54-.17.71.71,0,0,1-.87.11.56.56,0,0,1-.32.15.69.69,0,0,1-.34-.09,1.1,1.1,0,0,1-.31-.33,3.84,3.84,0,0,1-.37-1.61c0-.23,0-.35,0-.57-.08-1.2-.38-2-.92-2.3a.94.94,0,0,0-.6-.14l-.68,0c.12,1.53.18,2.29.3,3.78.13.36.34.53.62.51a.44.44,0,0,0,.31-.15.79.79,0,0,1,.08.33.58.58,0,0,1-.14.44.66.66,0,0,1-.51.25A.92.92,0,0,1,33.67,90.56ZM32.35,88.7c.18-.11.25-.46.23-1s-.09-1.38-.17-2.42-.14-1.73-.17-2.08-.06-.62-.08-.83a3.13,3.13,0,0,0-.22-1.12A.67.67,0,0,0,31.7,81c.15,1.84.22,2.89.19,3.14a.65.65,0,0,1-.36.48A.63.63,0,0,1,32,85a25.89,25.89,0,0,1,.3,2.74C32.3,88.1,32.32,88.3,32.35,88.7Zm2-9.34a1,1,0,0,0-1.07,1.27c.09,1.3.14,2,.23,3.24a.61.61,0,0,0,.28.54,1.35,1.35,0,0,0,.68.09,1.8,1.8,0,0,0,.62-.11.69.69,0,0,0,.29-.25A1.91,1.91,0,0,0,35.59,83c-.06-.93-.08-1.39-.14-2.32,0-.67-.27-1.09-.69-1.25A.89.89,0,0,0,34.37,79.36Zm1.76,7a1.59,1.59,0,0,1,.28.84c0,.41,0,.62.06,1,.06.85.21,1.29.46,1.34a.44.44,0,0,0,.2,0,2.18,2.18,0,0,1-.26-.9c0-.43,0-.64-.07-1.08a1.94,1.94,0,0,0-.18-.86C36.46,86.38,36.3,86.27,36.13,86.32Zm-.33-6.53a5.84,5.84,0,0,1,.28,1.78,11.8,11.8,0,0,1,0,2.52c.21-.07.34-.46.4-1.19l0-.33a.78.78,0,0,1,.35-.68.56.56,0,0,1-.31-.23,2.16,2.16,0,0,1-.16-.56,6.52,6.52,0,0,0-.15-.65,2.23,2.23,0,0,0-.14-.38C36,79.9,35.91,79.81,35.8,79.79Z"/><path class="cls-1" d="M44.08,90.09a1.06,1.06,0,0,1-.65.26,1.08,1.08,0,0,1-.67-.24,1,1,0,0,1-.56.27,1.2,1.2,0,0,1-.42,0,.82.82,0,0,1-.28-.14.65.65,0,0,1-.26-.49.59.59,0,0,1,0-.27.4.4,0,0,0,.33.12A.67.67,0,0,0,42,89.4a.86.86,0,0,0,.31-.46c-.05-1.49-.07-2.25-.1-3.78a1,1,0,0,0-.13-.53,1.87,1.87,0,0,0-.61-.56,1.63,1.63,0,0,0,.5-.45,1.24,1.24,0,0,0,.18-.71c0-1.48,0-2.22-.07-3.72a1,1,0,0,0-.47-.08,1,1,0,0,0-.56.21,1.85,1.85,0,0,0-.52.58,4,4,0,0,0-.46,2.2,2.73,2.73,0,0,0,.22,1.13.27.27,0,0,1-.25.21.63.63,0,0,1-.35-.11,1.09,1.09,0,0,1-.27-.32,1.81,1.81,0,0,1-.26-.88,2.28,2.28,0,0,1,.1-.82,1.58,1.58,0,0,1-.1-1.53,1.66,1.66,0,0,1-.28-1,1,1,0,0,1,.45-1,.63.63,0,0,1,.25-.09.38.38,0,0,1,.31.11,2.05,2.05,0,0,0,0,.28c0,.21.06.32.17.31a.63.63,0,0,0,.19,0l.26-.12A3.75,3.75,0,0,1,41.67,78a1.32,1.32,0,0,1,.83.25,1,1,0,0,1,.69-.29,1,1,0,0,1,.7.26,1.15,1.15,0,0,1,.7-.29,3.13,3.13,0,0,1,1,.15l.53.19a.57.57,0,0,0,.18,0c.11,0,.17-.11.17-.33,0,0,0-.14,0-.27a.34.34,0,0,1,.25-.13.73.73,0,0,1,.55.29,1.22,1.22,0,0,1,.22.81,1.63,1.63,0,0,1-.25.92,1.28,1.28,0,0,1,.17.73,1.49,1.49,0,0,1-.22.81,1.72,1.72,0,0,1,.13.66,2.68,2.68,0,0,1-.06.59,1.46,1.46,0,0,1-.16.46.7.7,0,0,1-.6.45.26.26,0,0,1-.27-.2,2.58,2.58,0,0,0,.18-1.1,5.5,5.5,0,0,0-.14-1.3,3.61,3.61,0,0,0-.39-.93A1.32,1.32,0,0,0,44.73,79a.83.83,0,0,0-.43.1c0,1.5,0,2.25,0,3.73a1.21,1.21,0,0,0,.13.58,1.9,1.9,0,0,0,.6.55,1.85,1.85,0,0,0-.53.47,1.19,1.19,0,0,0-.16.65c0,1.53,0,2.29.07,3.78a.8.8,0,0,0,.33.44.78.78,0,0,0,.42.14.48.48,0,0,0,.34-.13.66.66,0,0,1,.07.26.63.63,0,0,1-.06.27.65.65,0,0,1-.18.22.87.87,0,0,1-.6.22A1.06,1.06,0,0,1,44.08,90.09Zm-1.21-1.9c.19-.1.28-.44.29-1s0-1.38,0-2.42,0-1.75,0-2.09,0-.63,0-.85a3.2,3.2,0,0,0-.15-1.14.7.7,0,0,0-.22-.25c0,1.86,0,2.92,0,3.16a.62.62,0,0,1-.39.46.64.64,0,0,1,.41.4c0,.25.09,1.18.13,2.75C42.85,87.59,42.86,87.79,42.87,88.19Z"/><path class="cls-1" d="M56.48,89a2,2,0,0,0,.38-.65,2.72,2.72,0,0,0,.15-.86,1.6,1.6,0,0,0-.11-.72.36.36,0,0,1,.39-.2.51.51,0,0,1,.45.28,1.54,1.54,0,0,1,.13.79,3.05,3.05,0,0,1-.24,1.07,3,3,0,0,1-.6.93,2.71,2.71,0,0,1-2.1.81,3.09,3.09,0,0,1-2.44-1.3,7,7,0,0,1-1.15-3.71A1.85,1.85,0,0,0,50.77,84a1.21,1.21,0,0,0,.38-.36,2.39,2.39,0,0,0,.23-.89,9.06,9.06,0,0,1,.21-1.17,7.21,7.21,0,0,1,.4-1.16,5,5,0,0,1,.58-1,3.61,3.61,0,0,1,.77-.79A3.11,3.11,0,0,1,55.43,78a2.53,2.53,0,0,1,1.89.88,3.7,3.7,0,0,1,.8,2,1.55,1.55,0,0,0,.21.77.44.44,0,0,0,.14.13.71.71,0,0,1-.55.42.48.48,0,0,1-.34-.11,1.12,1.12,0,0,1-.94.76.17.17,0,0,1-.18-.07,1.41,1.41,0,0,0,.17-.67.61.61,0,0,0,0-.14.51.51,0,0,1-.46-.09.72.72,0,0,1-.3-.54.69.69,0,0,1,0-.13.57.57,0,0,0,.7-.19.77.77,0,0,0,.24-.56,1.6,1.6,0,0,0-.09-.56,1.29,1.29,0,0,0-.25-.44,1.35,1.35,0,0,0-1-.48q-1,0-1.38,1.23a4.56,4.56,0,0,0-.13,1c0,.66,0,1,0,1.63a1.41,1.41,0,0,0,.61,1.31,1.5,1.5,0,0,0-.67,1.34c0,.78,0,1.16,0,1.92a2,2,0,0,0,.84,1.94,1.38,1.38,0,0,0,.61.16,1.68,1.68,0,0,0,.64-.09A1.44,1.44,0,0,0,56.48,89Zm-3.86-.84a.15.15,0,0,0,.09-.15,2,2,0,0,0-.12-.54,12.85,12.85,0,0,1-.25-3.46,13,13,0,0,1,.39-3.18c0-.14,0-.24.05-.31a.14.14,0,0,0-.08-.14,3.49,3.49,0,0,0-.41.94,14,14,0,0,0-.39,2.29c0,.14-.13.26-.35.38.22.14.33.28.34.41a12.93,12.93,0,0,0,.49,3.25A3,3,0,0,0,52.62,88.2Z"/><path class="cls-1" d="M60.63,90.69a1.14,1.14,0,0,1-.66-.27.85.85,0,0,1-.54.2,1.34,1.34,0,0,1-.4-.08,1.08,1.08,0,0,1-.28-.16.62.62,0,0,1-.23-.5.49.49,0,0,1,.07-.25.5.5,0,0,0,.32.14.69.69,0,0,0,.71-.53c.05-1.46.08-2.22.14-3.75a1,1,0,0,0-.08-.55,2,2,0,0,0-.58-.61,1.58,1.58,0,0,0,.53-.41,1.27,1.27,0,0,0,.23-.69c.06-1.35.1-2,.17-3.42a.77.77,0,0,0-.7-.67.42.42,0,0,0-.34.12.64.64,0,0,1-.05-.28.74.74,0,0,1,.08-.3.87.87,0,0,1,.2-.23,1,1,0,0,1,.64-.19.91.91,0,0,1,.64.31,1,1,0,0,1,.71-.23,1,1,0,0,1,.68.31,1,1,0,0,1,.62-.23,1.51,1.51,0,0,1,.44.1.92.92,0,0,1,.28.19.65.65,0,0,1,.22.55.61.61,0,0,1-.08.28.46.46,0,0,0-.35-.16.8.8,0,0,0-.45.12,1,1,0,0,0-.36.46c-.08,1.38-.12,2.06-.2,3.41a1.24,1.24,0,0,0,.09.6,2.08,2.08,0,0,0,.56.6,2,2,0,0,0-.56.42,1.16,1.16,0,0,0-.2.64c-.07,1.37-.1,2-.16,3.36.23.54.53.82.9.85a1.72,1.72,0,0,0,1.88-1.42,5.27,5.27,0,0,0,.25-1.27,1.73,1.73,0,0,0-.07-.81.36.36,0,0,1,.28-.12.49.49,0,0,1,.26.1.75.75,0,0,1,.21.25,1.4,1.4,0,0,1,.15.77,2.88,2.88,0,0,1-.1.66,1.15,1.15,0,0,1,.22.83,1.41,1.41,0,0,1-.28.82,1.09,1.09,0,0,1,.16.58,1.57,1.57,0,0,1-.08.42,1,1,0,0,1-.17.31.61.61,0,0,1-.53.23.42.42,0,0,1-.26-.1,3.11,3.11,0,0,0,0-.32c0-.22-.07-.34-.22-.35a1.09,1.09,0,0,0-.5.14,2.63,2.63,0,0,1-1.38.26,2.47,2.47,0,0,1-1.19-.34A.94.94,0,0,1,60.63,90.69Zm-.43-2.15c.19-.09.31-.41.35-1s.09-1.37.14-2.41.08-1.75.1-2.1,0-.63,0-.85A3.43,3.43,0,0,0,60.75,81a.88.88,0,0,0-.2-.28c-.1,1.89-.16,2.95-.23,3.19a.62.62,0,0,1-.42.43.62.62,0,0,1,.38.43,27,27,0,0,1,0,2.74C60.22,88,60.21,88.14,60.2,88.54Z"/><path class="cls-1" d="M73.41,89.35a1.51,1.51,0,0,0,.34.68,1.64,1.64,0,0,0-.54.42,4.56,4.56,0,0,1-.73.6,3.72,3.72,0,0,1-.77.39,3.12,3.12,0,0,1-1.43.16,4.07,4.07,0,0,1-1.35-.37,3.12,3.12,0,0,1-1-.74,3,3,0,0,1-.64-2.25c.06-.84.09-1.27.16-2.14a1.15,1.15,0,0,0-.07-.54,2,2,0,0,0-.56-.64,1.58,1.58,0,0,0,.55-.39,1.22,1.22,0,0,0,.25-.68c.11-1.35.17-2,.29-3.42a.77.77,0,0,0-.67-.71.46.46,0,0,0-.35.11.54.54,0,0,1,0-.29.75.75,0,0,1,.09-.29.88.88,0,0,1,.21-.22.89.89,0,0,1,.65-.17.93.93,0,0,1,.63.33,1,1,0,0,1,1.39.14.87.87,0,0,1,.59-.21,1.18,1.18,0,0,1,.43.1,1,1,0,0,1,.27.2.66.66,0,0,1,.2.57.62.62,0,0,1-.09.28.49.49,0,0,0-.32-.18c-.36,0-.62.15-.8.56-.14,1.38-.2,2.07-.33,3.42a1.16,1.16,0,0,0,.07.6,1.82,1.82,0,0,0,.54.62,1.87,1.87,0,0,0-.58.41,1.2,1.2,0,0,0-.23.62c-.08.88-.11,1.31-.18,2.16A2.2,2.2,0,0,0,69.8,90a1.47,1.47,0,0,0,1,.65A1.5,1.5,0,0,0,72,90.29a1.7,1.7,0,0,0,.63-1.2c.1-1,.15-1.45.25-2.45a.91.91,0,0,0,0-.52,2.32,2.32,0,0,0-.54-.61,2,2,0,0,0,.56-.37,1,1,0,0,0,.26-.6c.16-1.42.24-2.15.41-3.61-.12-.37-.31-.58-.56-.6a.86.86,0,0,0-.56.07,1,1,0,0,1,0-.41.65.65,0,0,1,.24-.44.64.64,0,0,1,.51-.13.72.72,0,0,1,.5.27.7.7,0,0,1,.51-.15.65.65,0,0,1,.46.28.73.73,0,0,1,.54-.16.59.59,0,0,1,.43.26.77.77,0,0,1,.11.49.86.86,0,0,1-.11.38.88.88,0,0,0-.54-.21c-.25,0-.47.12-.67.45-.18,1.46-.27,2.19-.43,3.62a.9.9,0,0,0,0,.52,2.49,2.49,0,0,0,.59.64,2.69,2.69,0,0,0-.66.39,1,1,0,0,0-.22.54C73.57,87.81,73.51,88.33,73.41,89.35Zm-5.32-.16c0-.27.13-1.13.26-2.65s.2-2.48.23-2.83,0-.64.06-.85a3.2,3.2,0,0,0,0-1.18.74.74,0,0,0-.19-.28c-.17,1.89-.27,2.95-.34,3.19a.63.63,0,0,1-.43.41.64.64,0,0,1,.36.44A12,12,0,0,1,68,87.07c-.06.82-.09,1.29-.08,1.44a1.63,1.63,0,0,0,0,.36A.48.48,0,0,0,68.09,89.19Z"/><path class="cls-1" d="M76.9,92.39a1,1,0,0,1-.62-.32.93.93,0,0,1-.56.15,1.21,1.21,0,0,1-.39-.11.94.94,0,0,1-.25-.18.58.58,0,0,1-.19-.5.5.5,0,0,1,.09-.25.42.42,0,0,0,.3.17A.68.68,0,0,0,76,90.9c.18-1.43.27-2.18.47-3.7a1.22,1.22,0,0,0,0-.56,1.77,1.77,0,0,0-.52-.66,1.67,1.67,0,0,0,.56-.36,1.24,1.24,0,0,0,.29-.67c.18-1.35.27-2,.47-3.42-.08-.45-.29-.69-.65-.74a.41.41,0,0,0-.35.1.67.67,0,0,1,.08-.59.63.63,0,0,1,.22-.21,1,1,0,0,1,.67-.15.91.91,0,0,1,.61.36,1.05,1.05,0,0,1,1.43.24,2.61,2.61,0,0,1,1.38-.19,3.74,3.74,0,0,1,1.17.37,3.45,3.45,0,0,1,.9.65,2.9,2.9,0,0,1,.85,2,1.45,1.45,0,0,0,.4,1,2,2,0,0,0-.77.93,2.21,2.21,0,0,1-1.26,1.48A2.42,2.42,0,0,1,83,88.93a1.46,1.46,0,0,0,.38.95,1.66,1.66,0,0,0-.74.87,3,3,0,0,1-.71,1.06,3.31,3.31,0,0,1-1,.67,3.87,3.87,0,0,1-2.19.27,2.6,2.6,0,0,1-1.2-.51A1,1,0,0,1,76.9,92.39Zm-.24-2.14c.2-.06.34-.37.44-.93s.21-1.35.35-2.38.24-1.74.28-2.09l.12-.85a3.92,3.92,0,0,0,0-1.18,1,1,0,0,0-.18-.3c-.27,1.9-.43,3-.51,3.19a.66.66,0,0,1-.46.4.61.61,0,0,1,.34.45c0,.26-.09,1.2-.28,2.72C76.74,89.67,76.71,89.87,76.66,90.25Zm3.27-4.2a.81.81,0,0,0,.77-.22,2.4,2.4,0,0,0,.42-1.15l.3-1.88a1.08,1.08,0,0,0-.24-.91.91.91,0,0,0-.56-.4,1.07,1.07,0,0,0-.48,0,1.53,1.53,0,0,0-.37.21,1.27,1.27,0,0,0-.43.79c-.2,1.36-.3,2-.5,3.37Zm-1.74,4.46a1.2,1.2,0,0,0,.18.89.9.9,0,0,0,.63.41,1,1,0,0,0,.68-.11,1.29,1.29,0,0,0,.65-.9c.13-.87.2-1.31.34-2.21a1.49,1.49,0,0,0-.17-1.12,1,1,0,0,0-.7-.42l-1.1-.18C78.48,88.37,78.38,89.1,78.19,90.51Zm3.73-8.62a6.23,6.23,0,0,1-.1,1.85A9.69,9.69,0,0,1,81.28,86c.17,0,.35-.21.52-.58a2.2,2.2,0,0,0,.17-.45c0-.15.09-.28.12-.36a.9.9,0,0,1,.1-.22.63.63,0,0,1,.37-.26.57.57,0,0,1-.25-.28,1.43,1.43,0,0,1,0-.52,4,4,0,0,0,0-.62,1.86,1.86,0,0,0-.08-.41C82.12,82.06,82,81.93,81.92,81.89Zm-.69,5.64a8,8,0,0,1-.17,2,12.23,12.23,0,0,1-.44,2.14q.12,0,.3-.33a3.44,3.44,0,0,0,.28-.69c.08-.24.13-.41.16-.49a1,1,0,0,1,.09-.23.66.66,0,0,1,.36-.28.66.66,0,0,1-.3-.64c0-.3,0-.53,0-.7a1.89,1.89,0,0,0-.06-.4Q81.38,87.59,81.23,87.53Z"/><path class="cls-1" d="M76.6,65.7h1.2a.39.39,0,0,0,.29-.1.42.42,0,0,0,.11-.3V65a.42.42,0,0,0-.48-.48h-1a.42.42,0,0,0-.48.48v.32a.39.39,0,0,0,.11.3A.38.38,0,0,0,76.6,65.7Z"/><path class="cls-1" d="M91.11,8.05c-.16-.38-.43-.36-.72-.39-1.91-.18-3.83-.31-5.73-.55a1.36,1.36,0,0,0-1.56.78c-2.79,4.52-5.63,9-8.45,13.5-.7.91-1.32,2.13-2,3,.55-1,1.12-1.95,1.82-3.23L82.24,7.7a2,2,0,0,0,.4-1.25c-.13-1.49-.27-3-.31-4.49,0-.87-.39-.83-1-.56a12.36,12.36,0,0,0-4.14,3,23,23,0,0,0-3.55,5.5A116.07,116.07,0,0,0,68,25a42.14,42.14,0,0,1-1.93,5.24,1.57,1.57,0,0,1,0-.53c.42-2.16,1.12-4.23,1.73-6.34A85.26,85.26,0,0,1,72.69,9.69c1.48-3.08,3.14-6,6-8,.12-.09.25-.15.24-.34A1.92,1.92,0,0,0,77.49,0a21.42,21.42,0,0,0-6.76,1.75,10.16,10.16,0,0,0-6.21,7.62,46.93,46.93,0,0,0-.8,6.88,128.64,128.64,0,0,0,.34,15.21A2.28,2.28,0,0,1,63.67,33Q57,42.82,50.41,52.7c-1.21,1.81-2.41,3.64-3.66,5.52-.15-.19-.24-.29-.32-.41C41.18,50,36,42.13,30.66,34.35a6.66,6.66,0,0,1-1.17-4.59,88.56,88.56,0,0,0-.25-18.7,11.49,11.49,0,0,0-2.12-5.95C24.17,1.52,20.06.45,15.69,0,15,0,14.88.81,14.57,1.27s.31.42.5.6c.48.45,1,.84,1.48,1.31a26,26,0,0,1,4.81,7.76,108.78,108.78,0,0,1,4.85,14.4,24,24,0,0,1,1.16,4.94c-.32-.68-.59-1.37-.84-2.07C25,24,23.8,19.64,22.2,15.43a41.14,41.14,0,0,0-5-9.93,12,12,0,0,0-5.31-4.16c-.51-.2-.68-.12-.71.44C11.12,3,11,4.3,10.87,5.55a4.1,4.1,0,0,0,.67,2.7c2.52,4.3,5,8.63,7.46,12.94l2.83,4.92-1.06-1.72c-.67-1-1.25-1.91-1.95-3l-.49-.75q-4.06-6.48-8.1-13A1,1,0,0,0,9.08,7.1c-1.91.22-3.82.41-5.73.53a1.22,1.22,0,0,0-1.21.93A21.32,21.32,0,0,0,.65,14.84c-.23,3.51.66,6.59,3.45,9A34.93,34.93,0,0,0,7,26a108.54,108.54,0,0,0,16.76,8.84,2.11,2.11,0,0,1,1.09,1q3.59,6.74,7.21,13.47,4.48,8.33,9,16.62c.15.28.36.51.1.89-.63.91-1.2,1.87-1.79,2.81-.15.24-.28.43-.64.33s-.71-.21-.89.15.16.65.37.93.29.31.41.47c.42.55.72.64,1.13-.07.7-1.23,1.52-2.39,2.3-3.59a.62.62,0,0,1,.09.95c-.54.83-1,1.68-1.57,2.52-.78,1.25-.78,1.25.37,2.18a2.11,2.11,0,0,0,.5.49,2.49,2.49,0,0,0-.71-.3,8.46,8.46,0,0,1-2.05-1.45c-.56-.55-.78-.34-1.09.21s-.61,1.41-1.7,1.19c-.55-.12-.43.46-.2.75.42.54.89,1,1.37,1.58-.61.31-.87-.25-1.29-.47-.24.64-.76.71-1.37.72a19.59,19.59,0,0,0-2.87.21,1.4,1.4,0,0,1-1.61-.73,20.46,20.46,0,0,1,.86-24.63,1.16,1.16,0,0,0,.14-1.55c-1.26-2.25-2.44-4.55-3.65-6.83-.53-1-.53-1-1.33-.21a29.42,29.42,0,0,0-8.44,15.39c-.12.61-.35.82-1,.79-1.5,0-3,0-4.51,0-.5,0-.67.12-.66.65q0,4.63,0,9.28c0,.53.18.64.66.63,1.53,0,3.07,0,4.6,0a.73.73,0,0,1,.88.72A21.15,21.15,0,0,0,18.61,74c.46,1.2,1,2.38,1.47,3.61l-.46.09c-3.05.47-6.1,1-9.16,1.41-.74.11-1,.35-.81,1.15C10.4,84.1,11.07,88,11.8,91.84c.24,1.26.15,2.68.82,3.75,1.22,2,2.71,3.79,4.24,5.89-.35-2.13-.63-4-1-5.89-.12-.62.07-.76.63-.84,2.44-.32,4.89-.63,7.31-1a2.6,2.6,0,0,1,2.82.9,8.91,8.91,0,0,0,1.51,1.27,2.51,2.51,0,0,0,.84.69c-.33-.16-.61-.47-1-.51l-2.1-1.33c-.39,1.5-1,2.94-.26,4.47.15.31-.11.51-.24.72q-4,6.56-7.57,13.39c-.94,1.83-1.71,3.74-2.55,5.61a55.76,55.76,0,0,0,4.17-5.22c2.84-4.09,5.5-8.31,8-12.6.11-.2.16-.5.46-.5,1.62,0,2.58-1.13,3.63-2.1.42-.4.77-.84,1.45-.52a.43.43,0,0,0,.56-.15.4.4,0,0,0-.09-.49c-.42-.39-.27-.69.07-1a8.73,8.73,0,0,0,1-1.27.81.81,0,0,1,1.06-.39c.29.09.62.19.83-.1s-.08-.55-.24-.8c-.37-.57-.15-1.08.54-1.15a5,5,0,0,1,1.95.13,29.66,29.66,0,0,0,16.78-.19,3.88,3.88,0,0,1,.88-.12,1.15,1.15,0,0,1,1.12.57c.32.46-.09.63-.24.91s-.31.42-.13.66a.5.5,0,0,0,.58.13c.81-.35,1.21.14,1.59.71a6.18,6.18,0,0,0,.68.85c.32.35.58.64.13,1.11-.3.31-.16.77.28.61,1-.37,1.39.38,2,.86.95.82,1.83,1.77,3.23,1.76.36,0,.41.3.54.52,2.1,3.57,4.34,7,6.6,10.53a77.69,77.69,0,0,0,5.51,7.28c-.79-1.9-1.57-3.81-2.51-5.64-2.33-4.54-4.86-9-7.53-13.32-.16-.26-.37-.47-.19-.88.64-1.49.08-2.88-.34-4.37a11,11,0,0,1-2.91,1.69,15.81,15.81,0,0,0,3-2.6,1.24,1.24,0,0,1,1.23-.47c3.49.38,7,.82,10.44,1.4,1.2.2,1.19.21,1,1.43-.28,1.68-.54,3.36-.83,5.14.17-.12.26-.15.3-.21l4.11-5.25a1.61,1.61,0,0,0,.32-.73c.92-5,1.82-10,2.78-15,.12-.65-.09-.73-.63-.83-3.93-.7-7.87-1.31-11.84-1.78-1-.13-1-.13-.6-1.08A28.29,28.29,0,0,0,76,70c.11-.57.33-.78.94-.76,1.53,0,3.06,0,4.59,0,.48,0,.61-.14.61-.61,0-3.09,0-6.19,0-9.28,0-.59-.22-.68-.73-.67-1.41,0-2.83,0-4.23,0-.85.05-1.08-.27-1.25-1a29.64,29.64,0,0,0-8.69-15.45c-.46-.44-.61-.32-.86.18-1.25,2.4-2.5,4.79-3.81,7.15a1.2,1.2,0,0,0,.17,1.61,20.5,20.5,0,0,1,.78,24.64c-.23.33-.43.59-.93.52-.71-.1-1.44-.09-2.16-.13s-1.54.15-2-.18c-.7-.49-1.24.11-1.88-.08.42-.48.83-.94,1.23-1.42a.6.6,0,0,0,.17-.66c-.13-.28-.41-.24-.63-.18-.55.15-.8-.13-1.06-.56-.78-1.29-.78-1.26-2-.35a9.49,9.49,0,0,1-2.76,1.63,1,1,0,0,1,.32-.33c.59-.45,1.51-.79,1.71-1.38s-.6-1.34-1-2L36.86,45.94c1.54,1.37,9.2,13.77,10.25,15.37,0,.06,8.09-11.41,8.12-11.46.79-1.1-7.74,12-7.7,12.11,2.12,3.22,4.14,6.34,6.26,9.56.13.2.18.79.66.39a4.9,4.9,0,0,0,1.11-1.29c.25-.45.06-.81-.4-.67-.84.25-1.09-.28-1.41-.82-.42-.7-.84-1.39-1.31-2a.9.9,0,0,1,0-1.13C53,65,53.46,64.06,54,63.11q7.31-13.59,14.6-27.19a2.25,2.25,0,0,1,1.14-1.05c2.51-1.14,5-2.29,7.48-3.52a63.15,63.15,0,0,0,11.59-7,9.81,9.81,0,0,0,3.67-5.2C93.43,15.25,92.58,11.61,91.11,8.05ZM17.5,62.9a1.49,1.49,0,0,1-.58,1.18,4.2,4.2,0,0,1-.38.3l-1.72,1.24H17.5v1.12H13.18V65.22l2.88-2.08v-.4a.42.42,0,0,0-.48-.48H13.34V61.14H15.9a1.68,1.68,0,0,1,1.22.38,1.7,1.7,0,0,1,.38,1.22Zm57.26,2.32a1.61,1.61,0,0,1,.3-1,1.18,1.18,0,0,1,.66-.44,1.13,1.13,0,0,1-.58-.42,1.26,1.26,0,0,1-.22-.78V62.5a1.43,1.43,0,0,1,.37-1.08,1.59,1.59,0,0,1,1.15-.36H78a1.6,1.6,0,0,1,1.15.36,1.43,1.43,0,0,1,.37,1.08v.08a1.33,1.33,0,0,1-.22.78,1.17,1.17,0,0,1-.58.42,1.26,1.26,0,0,1,.88.87,2,2,0,0,1,.08.57v.08a1.31,1.31,0,0,1-1.52,1.52H76.28a1.31,1.31,0,0,1-1.52-1.52ZM20,66.44a1.68,1.68,0,0,1-.38-1.22V62.66A1.7,1.7,0,0,1,20,61.44a1.68,1.68,0,0,1,1.22-.38h1.52a1.68,1.68,0,0,1,1.22.38,1.7,1.7,0,0,1,.38,1.22v2.56A1.68,1.68,0,0,1,24,66.44a1.64,1.64,0,0,1-1.22.38H21.26A1.64,1.64,0,0,1,20,66.44Zm51.12-5.3h1.28v5.6H71V62.38l-.92.32-.4-.92Zm-20,15.44A218,218,0,0,1,85.4,79.81c.67.11.82.33.69,1-.84,4.36-1.61,8.73-2.37,13.11-.1.55-.28.68-.82.58a198.43,198.43,0,0,0-69.15-.08c-.48.08-.77.13-.88-.48-.77-4.46-1.58-8.92-2.38-13.38,0-.09,0-.18,0-.24-.14-.58.3-.5.59-.55q5.23-.94,10.5-1.59A214.71,214.71,0,0,1,51.11,76.58Z"/><rect class="cls-1" x="21.1" y="62.18" width="1.84" height="3.52" rx="0.48" ry="0.48"/><rect class="cls-1" x="76.36" y="62.18" width="1.68" height="1.2" rx="0.48" ry="0.48"/><path class="cls-1" d="M58.9,36.66a30.15,30.15,0,0,0-8-2.28l-1.23,1.2.68,4-3.55-1.87L43.2,39.54l.68-4-1.24-1.2a30.47,30.47,0,0,0-8,2.25c-.68.29-.71.53-.3,1.12,1.52,2.16,3,4.35,4.43,6.56a.76.76,0,0,0,1.09.34,20.14,20.14,0,0,1,13.82,0,.75.75,0,0,0,1.07-.38c1.47-2.22,3-4.44,4.48-6.63C59.62,37.07,59.48,36.91,58.9,36.66Z"/><polygon class="cls-1" points="46.75 30.82 47.81 32.96 50.17 33.31 48.46 34.98 48.87 37.33 46.75 36.22 44.63 37.33 45.04 34.98 43.32 33.31 45.69 32.96 46.75 30.82"/></g></g></svg>